<svg width="640" height="615" viewBox="0 0 640 615" fill="none" xmlns="http://www.w3.org/2000/svg">
<path d="M491.828 148.172C531.126 187.47 552.035 241.937 549.957 299.59C547.878 357.244 522.982 413.362 480.745 455.599C438.508 497.836 382.39 522.732 324.736 524.811C267.083 526.889 212.616 505.98 173.318 466.682L332.573 307.427L491.828 148.172Z" fill="#A0EAFE"/>
<path d="M466.682 466.683C427.384 505.98 372.918 526.89 315.264 524.812C257.61 522.733 201.492 497.837 159.255 455.6C117.018 413.363 92.1218 357.245 90.0433 299.591C87.9649 241.937 108.874 187.471 148.172 148.173L307.427 307.428L466.682 466.683Z" fill="url(#paint0_linear_116_2)"/>
<defs>
<linearGradient id="paint0_linear_116_2" x1="485.793" y1="485.793" x2="148.172" y2="148.173" gradientUnits="userSpaceOnUse">
<stop stop-color="#A0EAFE" stop-opacity="0.99"/>
<stop offset="1" stop-color="#7CD5FE"/>
</linearGradient>
</defs>
</svg>
